<svg id="圖層_1" data-name="圖層 1" xmlns="http://www.w3.org/2000/svg" xmlns:xlink="http://www.w3.org/1999/xlink" viewBox="0 0 1297.97 647.29"><defs><style>.cls-1,.cls-4{fill:none;}.cls-2{opacity:0.05;}.cls-3{clip-path:url(#clip-path);}.cls-4{stroke:#4a180d;stroke-miterlimit:10;stroke-width:4px;}</style><clipPath id="clip-path"><rect class="cls-1" x="-132.48" y="-203.41" width="1546.37" height="887.29"/></clipPath></defs><g class="cls-2"><g class="cls-3"><g id="_格點重複_" data-name="&lt;格點重複&gt;"><rect class="cls-4" x="-3.78" y="29.86" width="86.87" height="86.87"/><rect class="cls-4" x="49" y="82.64" width="86.87" height="86.87"/></g><g id="_格點重複_2" data-name="&lt;格點重複&gt;"><rect class="cls-4" x="162.34" y="29.86" width="86.87" height="86.87"/><rect class="cls-4" x="215.12" y="82.64" width="86.87" height="86.87"/></g><g id="_格點重複_3" data-name="&lt;格點重複&gt;"><rect class="cls-4" x="328.46" y="29.86" width="86.87" height="86.87"/><rect class="cls-4" x="381.24" y="82.64" width="86.87" height="86.87"/></g><g id="_格點重複_4" data-name="&lt;格點重複&gt;"><rect class="cls-4" x="494.58" y="29.86" width="86.87" height="86.87"/><rect class="cls-4" x="547.37" y="82.64" width="86.87" height="86.87"/></g><g id="_格點重複_5" data-name="&lt;格點重複&gt;"><rect class="cls-4" x="660.71" y="29.86" width="86.87" height="86.87"/><rect class="cls-4" x="713.49" y="82.64" width="86.87" height="86.87"/></g><g id="_格點重複_6" data-name="&lt;格點重複&gt;"><rect class="cls-4" x="826.83" y="29.86" width="86.87" height="86.87"/><rect class="cls-4" x="879.61" y="82.64" width="86.87" height="86.87"/></g><g id="_格點重複_7" data-name="&lt;格點重複&gt;"><rect class="cls-4" x="992.95" y="29.86" width="86.87" height="86.87"/><rect class="cls-4" x="1045.73" y="82.64" width="86.87" height="86.87"/></g><g id="_格點重複_8" data-name="&lt;格點重複&gt;"><rect class="cls-4" x="1159.07" y="29.86" width="86.87" height="86.87"/><rect class="cls-4" x="1211.85" y="82.64" width="86.87" height="86.87"/></g><g id="_格點重複_9" data-name="&lt;格點重複&gt;"><rect class="cls-4" x="-3.78" y="260.9" width="86.87" height="86.87"/><rect class="cls-4" x="49" y="313.68" width="86.87" height="86.87"/></g><g id="_格點重複_10" data-name="&lt;格點重複&gt;"><rect class="cls-4" x="162.34" y="260.9" width="86.87" height="86.87"/><rect class="cls-4" x="215.12" y="313.68" width="86.87" height="86.87"/></g><g id="_格點重複_11" data-name="&lt;格點重複&gt;"><rect class="cls-4" x="328.46" y="260.9" width="86.87" height="86.87"/><rect class="cls-4" x="381.24" y="313.68" width="86.87" height="86.87"/></g><g id="_格點重複_12" data-name="&lt;格點重複&gt;"><rect class="cls-4" x="494.58" y="260.9" width="86.87" height="86.87"/><rect class="cls-4" x="547.37" y="313.68" width="86.87" height="86.87"/></g><g id="_格點重複_13" data-name="&lt;格點重複&gt;"><rect class="cls-4" x="660.71" y="260.9" width="86.87" height="86.87"/><rect class="cls-4" x="713.49" y="313.68" width="86.87" height="86.87"/></g><g id="_格點重複_14" data-name="&lt;格點重複&gt;"><rect class="cls-4" x="826.83" y="260.9" width="86.87" height="86.87"/><rect class="cls-4" x="879.61" y="313.68" width="86.87" height="86.87"/></g><g id="_格點重複_15" data-name="&lt;格點重複&gt;"><rect class="cls-4" x="992.95" y="260.9" width="86.87" height="86.87"/><rect class="cls-4" x="1045.73" y="313.68" width="86.87" height="86.87"/></g><g id="_格點重複_16" data-name="&lt;格點重複&gt;"><rect class="cls-4" x="1159.07" y="260.9" width="86.87" height="86.87"/><rect class="cls-4" x="1211.85" y="313.68" width="86.87" height="86.87"/></g><g id="_格點重複_17" data-name="&lt;格點重複&gt;"><rect class="cls-4" x="-3.78" y="491.94" width="86.87" height="86.87"/><rect class="cls-4" x="49" y="544.73" width="86.87" height="86.87"/></g><g id="_格點重複_18" data-name="&lt;格點重複&gt;"><rect class="cls-4" x="162.34" y="491.94" width="86.87" height="86.87"/><rect class="cls-4" x="215.12" y="544.73" width="86.87" height="86.87"/></g><g id="_格點重複_19" data-name="&lt;格點重複&gt;"><rect class="cls-4" x="328.46" y="491.94" width="86.87" height="86.87"/><rect class="cls-4" x="381.24" y="544.73" width="86.87" height="86.87"/></g><g id="_格點重複_20" data-name="&lt;格點重複&gt;"><rect class="cls-4" x="494.58" y="491.94" width="86.87" height="86.87"/><rect class="cls-4" x="547.37" y="544.73" width="86.87" height="86.87"/></g><g id="_格點重複_21" data-name="&lt;格點重複&gt;"><rect class="cls-4" x="660.71" y="491.94" width="86.87" height="86.87"/><rect class="cls-4" x="713.49" y="544.73" width="86.87" height="86.87"/></g><g id="_格點重複_22" data-name="&lt;格點重複&gt;"><rect class="cls-4" x="826.83" y="491.94" width="86.87" height="86.87"/><rect class="cls-4" x="879.61" y="544.73" width="86.87" height="86.87"/></g><g id="_格點重複_23" data-name="&lt;格點重複&gt;"><rect class="cls-4" x="992.95" y="491.94" width="86.87" height="86.87"/><rect class="cls-4" x="1045.73" y="544.73" width="86.87" height="86.87"/></g><g id="_格點重複_24" data-name="&lt;格點重複&gt;"><rect class="cls-4" x="1159.07" y="491.94" width="86.87" height="86.87"/><rect class="cls-4" x="1211.85" y="544.73" width="86.87" height="86.87"/></g></g></g></svg>