<svg id="圖層_1" data-name="圖層 1" xmlns="http://www.w3.org/2000/svg" viewBox="0 0 566.93 566.93"><defs><style>.cls-1{fill:#fff;}</style></defs><path class="cls-1" d="M36.47,448.35q16-16,39.53-15.48t40.36,17.42q16,16,17.28,39.39T118,529.9q-16,16-39,15.48t-38.7-16.31Q21.82,510.55,21.4,487.19T36.47,448.35Zm96.2-79.61a187.72,187.72,0,0,1,35.11-48.38A125.67,125.67,0,0,1,220,288.85q30.12-9.41,83.2-7.19,63,2.76,87.36-5T431,252.91q24.6-24.6,21.7-56.26t-29.72-58.46Q371.78,87,292.73,87.05l65.52-65.52Q433.16,39.5,485.68,92q53.09,53.08,59.16,111.41T503.93,308.75a151.26,151.26,0,0,1-63.58,38.42q-36.23,11.06-99.24,7.19-60.56-3.58-83.07,3.73t-37.46,22.26q-18.53,18.52-29,47.27Z"/></svg>