<svg id="圖層_1" data-name="圖層 1" xmlns="http://www.w3.org/2000/svg" viewBox="0 0 566.93 566.93"><defs><style>.cls-1{fill:#fff;}</style></defs><rect class="cls-1" x="243.21" y="85.5" width="157.69" height="316.17" transform="translate(266.57 -156.38) rotate(45)"/><polygon class="cls-1" points="480.11 306.79 258.85 85.53 516.49 49.15 480.11 306.79"/><path class="cls-1" d="M69.22,401.44Q64.12,400,58,393.92,42.22,378.14,59.35,361L89.56,330.8l-9.37-9.36,9.32-9.32,9.37,9.37,13-13,15.28,8.17L110.6,333.21,124,346.63,114.71,356l-13.43-13.42L73.13,370.68Q68,375.84,67.5,380t3.58,8.19a13.63,13.63,0,0,0,7.51,3.91Z"/><path class="cls-1" d="M102.49,381.5q13.67-13.68,29.38-13.8T161,381q12.67,12.67,12.37,27.7T159.8,437q-13.38,13.38-29.16,13.63t-28.75-12.72q-12.73-12.74-12.55-28.08T102.49,381.5Zm12.22,11.72q-9.12,9.12-9.79,18.66T111.85,429q16,16,35.67-3.71,9.53-9.51,10.4-18.61T151,389.87q-7.77-7.77-17.43-6.82T114.71,393.22Z"/><path class="cls-1" d="M164,482.49l-33,33-11.77-11.77,80.9-80.9,11.77,11.77-9.21,9.22.25.25q16.92-4.11,29.15,8.11,10.58,10.58,9.24,24t-14,26.08q-13.87,13.88-29.1,15.38t-26.75-10q-10.53-10.53-7.32-24.85Zm15.78-16a21.88,21.88,0,0,0-6.84,14.85,18.59,18.59,0,0,0,5.74,14.51q7.37,7.36,17.06,5.78t19.66-11.54q8.57-8.58,9.49-17t-5.83-15.21a19.8,19.8,0,0,0-16-6.13q-9.19.63-16.7,8.14Z"/></svg>